<?xml version="1.0" encoding="UTF-8"?>
<svg width="1487px" height="425px" viewBox="0 0 1487 425" version="1.1" xmlns="http://www.w3.org/2000/svg" xmlns:xlink="http://www.w3.org/1999/xlink">
    <title>MP logo</title>
    <defs>
        <polygon id="path-1" points="0.00384 0.06016 275.71584 0.06016 275.71584 232.40704 0.00384 232.40704"></polygon>
        <polygon id="path-3" points="0.00384 376.70016 1354.464 376.70016 1354.464 0 0.00384 0"></polygon>
    </defs>
    <g id="MP-logo" stroke="none" stroke-width="1" fill="none" fill-rule="evenodd">
        <g id="Group-9-Copy-2" transform="translate(66.000000, 24.000000)">
            <g id="Group-3" transform="translate(0.000000, 71.500160)">
                <mask id="mask-2" fill="white">
                    <use xlink:href="#path-1"></use>
                </mask>
                <g id="Clip-2"></g>
                <path d="M54.65856,5.95456 L54.65856,29.0944 L55.46496,29.0944 C62.64192,18.71872 70.72896,11.296 79.7184,6.81472 C88.65024,2.3104 99.37536,0.06016 111.77856,0.06016 C125.02656,0.06016 136.128,3.16672 145.0944,9.33376 C154.08768,15.51616 160.0512,24.4864 163.10784,36.2752 L163.92192,36.2752 C168.3648,24.21376 175.46112,15.1744 185.2416,9.1264 C195.06048,3.07456 206.71872,0.06016 220.25472,0.06016 C239.2704,0.06016 253.29024,5.89312 262.25664,17.53216 C271.22304,29.18656 275.71584,45.94816 275.71584,67.8208 L275.71584,232.40704 L218.592,232.40704 L218.592,74.11456 C218.592,64.61056 216.85248,57.3184 213.40416,52.24576 C209.96352,47.2192 204.24576,44.65792 196.23552,44.65792 C187.13088,44.65792 179.85792,47.77216 174.50112,53.93152 C169.11744,60.13696 166.41792,69.952 166.41792,83.38816 L166.41792,232.40704 L109.30944,232.40704 L109.30944,74.11456 C109.30944,64.61056 107.57376,57.3184 104.13312,52.24576 C100.66176,47.2192 94.93632,44.65792 86.95296,44.65792 C77.82912,44.65792 70.5984,47.77216 65.21472,53.93152 C59.83488,60.13696 57.13152,69.952 57.13152,83.38816 L57.13152,232.40704 L0,232.40704 L0,5.95456 L54.65856,5.95456 Z" id="Fill-1" fill="#FFFFFF" mask="url(#mask-2)"></path>
            </g>
            <mask id="mask-4" fill="white">
                <use xlink:href="#path-3"></use>
            </mask>
            <g id="Clip-5"></g>
            <path d="M600.87936,303.88608 L657.99936,303.88608 L657.99936,3.37536 L600.87936,3.37536 L600.87936,303.88608 Z M506.33856,49.67424 L563.4624,49.67424 L563.4624,5.68434189e-14 L506.33856,5.68434189e-14 L506.33856,49.67424 Z M506.33856,303.88608 L563.4624,303.88608 L563.4624,77.4336 L506.33856,77.4336 L506.33856,303.88608 Z M309.6192,141.4272 C309.6192,128.24448 311.69664,117.2352 315.83232,108.40704 C319.97184,99.55584 325.536,92.39808 332.62464,86.9568 C339.62496,81.4656 347.89632,77.5104 357.41568,75.1296 C366.93504,72.7488 377.07648,71.5776 387.85536,71.5776 C404.96256,71.5776 418.752,73.27104 429.2544,76.6272 C439.7376,79.968 447.88992,84.768 453.696,90.93888 C459.46752,97.0944 463.41504,104.448 465.45408,113.03808 C467.55072,121.5936 468.55296,130.92864 468.55296,141.0048 L468.55296,260.12928 C468.55296,270.81216 469.04448,279.08352 470.02368,284.95488 C470.99136,290.85696 472.8192,297.17376 475.59936,303.90912 L420.96384,303.90912 C419.03616,300.26112 417.58464,296.38272 416.63232,292.33152 C415.65696,288.26496 414.75072,284.24448 413.93664,280.31232 L413.11104,280.31232 C406.47552,292.09728 398.81472,299.76576 390.144,303.27552 C381.43872,306.78912 370.19904,308.53632 356.37888,308.53632 C346.46016,308.53632 338.04288,306.78912 331.15008,303.27552 C324.2304,299.76576 318.74304,294.92352 314.56512,288.76416 C310.44864,282.59712 307.38432,275.62752 305.48352,267.93216 C303.54048,260.18304 302.58048,252.54528 302.58048,244.98432 C302.58048,234.32448 303.69408,225.11232 305.89824,217.40544 C308.10624,209.69472 311.47008,203.10528 316.03968,197.63328 C320.59008,192.16128 326.38848,187.59552 333.43872,183.93984 C340.43904,180.29568 348.9408,177.08544 358.89024,174.26688 L391.1808,165.43104 C399.72096,163.16928 405.64608,160.09344 408.98688,156.18048 C412.2816,152.24064 413.93664,146.49984 413.93664,138.91584 C413.93664,130.1952 411.936,123.4176 407.93472,118.49856 C403.9296,113.6064 397.10976,111.11808 387.44448,111.11808 C378.6048,111.11808 371.99616,113.80224 367.55712,119.13984 C363.15648,124.45824 360.94848,131.62368 360.94848,140.60928 L360.94848,146.90688 L309.6192,146.90688 L309.6192,141.4272 Z M401.5104,198.03264 C397.10976,199.86048 393.10848,201.20064 389.52576,202.05312 C377.92128,204.56832 369.65376,208.76544 364.6848,214.68288 C359.70048,220.57728 357.23136,228.57216 357.23136,238.66368 C357.23136,247.38432 358.89024,254.79168 362.21184,260.95872 C365.49888,267.15648 371.01312,270.23232 378.73536,270.23232 C382.60608,270.23232 386.61504,269.59104 390.76608,268.31232 C394.89792,267.06048 398.68416,265.04832 402.13632,262.22208 C405.59232,259.44576 408.42624,255.79008 410.61504,251.27808 C412.82304,246.80448 413.93664,241.46688 413.93664,235.28448 L413.93664,190.68672 C410.08512,193.77792 405.9456,196.21248 401.5104,198.03264 L401.5104,198.03264 Z" id="Fill-4" fill="#FFFFFF" mask="url(#mask-4)"></path>
            <path d="M900.03456,303.88608 L957.15456,303.88608 L957.15456,3.37536 L900.03456,3.37536 L900.03456,303.88608 Z M749.10336,77.47968 L749.10336,101.47584 L749.91744,101.47584 C756.26112,90.80448 763.39968,83.13984 771.25632,78.5088 C779.10912,73.8624 788.8512,71.5776 800.4288,71.5776 C823.87584,71.5776 841.14432,80.8896 852.1728,99.55584 C863.21664,118.1952 868.73088,148.59264 868.73088,190.68672 C868.73088,232.75392 863.21664,262.93248 852.1728,281.17632 C841.14432,299.39712 823.87584,308.53632 800.4288,308.53632 C789.66528,308.53632 780.50688,306.51648 772.91904,302.41152 C765.32736,298.37568 758.47296,291.83232 752.4288,282.84672 L751.56864,282.84672 L751.56864,376.69632 L694.46784,376.69632 L694.46784,77.47968 L749.10336,77.47968 Z M757.18272,246.43968 C760.90368,258.94656 769.10592,265.16736 781.82784,265.16736 C794.23488,265.16736 802.31808,258.94656 806.0352,246.43968 C809.74464,233.97888 811.61088,215.35488 811.61088,190.68672 C811.61088,165.98784 809.74464,147.40608 806.0352,134.90304 C802.31808,122.44224 794.23488,116.18304 781.82784,116.18304 C769.10592,116.18304 760.90368,122.44224 757.18272,134.90304 C753.4656,147.40608 751.56864,165.98784 751.56864,190.68672 C751.56864,215.35488 753.4656,233.97888 757.18272,246.43968 L757.18272,246.43968 Z" id="Fill-6" fill="#FBEA52" mask="url(#mask-4)"></path>
            <path d="M1107.01171,277.389696 C1100.94451,288.583296 1093.07635,296.608896 1083.42643,301.370496 C1073.73427,306.155136 1062.71731,308.528256 1050.29491,308.528256 C1032.07027,308.528256 1018.06579,303.697536 1008.28531,294.016896 C998.477952,284.320896 993.585792,268.116096 993.585792,245.375616 L993.585792,77.467776 L1050.69427,77.467776 L1050.69427,233.613696 C1050.69427,245.375616 1052.63731,253.597056 1056.49267,258.224256 C1060.38259,262.870656 1066.59571,265.197696 1075.13203,265.197696 C1095.26515,265.197696 1105.34515,252.698496 1105.34515,227.719296 L1105.34515,77.467776 L1162.47667,77.467776 L1162.47667,303.901056 L1107.81811,303.901056 L1107.81811,277.389696 L1107.01171,277.389696 Z" id="Fill-7" fill="#FBEA52" mask="url(#mask-4)"></path>
            <path d="M1241.0496,237.398016 C1241.0496,247.209216 1243.57632,255.158016 1248.69888,261.190656 C1253.79456,267.219456 1261.19808,270.230016 1270.87104,270.230016 C1279.6608,270.230016 1286.71104,267.983616 1291.93728,263.471616 C1297.1904,258.998016 1299.83232,252.278016 1299.83232,243.292416 C1299.83232,235.977216 1297.75872,230.447616 1293.60384,226.665216 C1289.472,222.886656 1284.6528,219.864576 1279.11552,217.625856 L1238.96832,202.876416 C1223.26272,197.266176 1211.38176,189.355776 1203.37536,179.106816 C1195.38048,168.873216 1191.37536,155.736576 1191.37536,139.739136 C1191.37536,130.488576 1192.896,121.729536 1195.91424,113.442816 C1198.97472,105.182976 1203.7824,97.959936 1210.41408,91.762176 C1217.02656,85.595136 1225.52448,80.676096 1235.85024,77.047296 C1246.22592,73.403136 1258.70976,71.582976 1273.344,71.582976 C1299.28704,71.582976 1318.45632,77.189376 1330.88256,88.382976 C1343.2896,99.645696 1349.49888,115.493376 1349.49888,135.960576 L1349.49888,145.211136 L1298.17344,145.211136 C1298.17344,133.449216 1296.32256,124.809216 1292.56704,119.333376 C1288.86912,113.861376 1282.272,111.115776 1272.9216,111.115776 C1265.71008,111.115776 1259.45472,113.166336 1254.07104,117.240576 C1248.69888,121.287936 1246.01088,127.412736 1246.01088,135.542016 C1246.01088,141.159936 1247.7312,146.209536 1251.18336,150.690816 C1254.64704,155.179776 1261.19808,158.966016 1270.87104,162.072576 L1305.21216,173.846016 C1323.13344,180.005376 1335.84768,188.092416 1343.2896,198.038016 C1350.75072,207.998976 1354.46784,221.558016 1354.46784,238.669056 C1354.46784,250.722816 1352.4096,261.190656 1348.27776,270.041856 C1344.09984,278.854656 1338.39744,286.242816 1331.07072,292.102656 C1323.75552,298.012416 1315.05408,302.221056 1304.98944,304.736256 C1294.9248,307.247616 1283.80032,308.534016 1271.6928,308.534016 C1255.68384,308.534016 1242.34752,306.982656 1231.7376,303.914496 C1221.10464,300.823296 1212.70272,296.173056 1206.4704,290.013696 C1200.27264,283.827456 1195.91424,276.335616 1193.44128,267.480576 C1190.95296,258.679296 1189.70112,248.764416 1189.70112,237.816576 L1189.70112,229.817856 L1241.0496,229.817856 L1241.0496,237.398016 Z" id="Fill-8" fill="#FBEA52" mask="url(#mask-4)"></path>
        </g>
    </g>
</svg>